<?xml version="1.0" standalone="no"?>
<!DOCTYPE svg PUBLIC "-//W3C//DTD SVG 20010904//EN"
 "http://www.w3.org/TR/2001/REC-SVG-20010904/DTD/svg10.dtd">
<svg version="1.0" xmlns="http://www.w3.org/2000/svg"
 width="72.000000pt" height="72.000000pt" viewBox="0 0 72.000000 72.000000"
 preserveAspectRatio="xMidYMid meet">

<g transform="translate(0.000000,72.000000) scale(0.100000,-0.100000)"
fill="#000000" stroke="none">
<path d="M90 360 l0 -270 270 0 270 0 0 270 0 270 -270 0 -270 0 0 -270z m241
33 c20 -61 40 -126 44 -142 6 -28 4 -31 -19 -31 -21 0 -27 7 -37 40 -12 39
-13 40 -60 40 -48 0 -48 -1 -60 -40 -10 -32 -17 -40 -36 -40 -12 0 -23 3 -23
6 0 6 73 239 85 272 3 8 17 12 37 10 31 -3 32 -6 69 -115z m210 27 c22 -12 49
-61 49 -90 0 -18 -6 -20 -70 -20 -63 0 -70 -2 -70 -20 0 -26 34 -43 81 -38 32
3 39 0 39 -14 0 -41 -111 -35 -147 7 -25 28 -30 84 -13 129 16 44 87 69 131
46z"/>
<path d="M243 417 c-7 -23 -15 -50 -18 -59 -6 -15 -1 -18 33 -18 l40 0 -17 55
c-9 30 -19 57 -22 59 -3 3 -10 -14 -16 -37z"/>
<path d="M472 384 c-37 -26 -28 -44 23 -44 49 0 58 15 27 43 -23 21 -22 21
-50 1z"/>
</g>
</svg>
