<?xml version="1.0" standalone="no"?>
<!DOCTYPE svg PUBLIC "-//W3C//DTD SVG 20010904//EN"
 "http://www.w3.org/TR/2001/REC-SVG-20010904/DTD/svg10.dtd">
<svg version="1.0" xmlns="http://www.w3.org/2000/svg"
 width="72.000000pt" height="72.000000pt" viewBox="0 0 72.000000 72.000000"
 preserveAspectRatio="xMidYMid meet">

<g transform="translate(0.000000,72.000000) scale(0.100000,-0.100000)"
fill="#000000" stroke="none">
<path d="M134 621 c-27 -17 -39 -36 -58 -93 -3 -11 -15 -18 -29 -18 -42 0 -47
-16 -47 -146 0 -67 3 -129 6 -138 4 -9 18 -16 34 -16 24 0 30 -5 36 -32 10
-47 34 -79 71 -94 47 -20 380 -20 428 0 68 29 80 76 70 272 l-7 143 -137 3
-136 3 -3 68 -3 67 -97 0 c-77 0 -103 -4 -128 -19z m5 -212 l19 -31 18 31 c10
17 27 31 37 31 18 0 18 -2 5 -22 -44 -68 -44 -63 -15 -107 25 -38 26 -41 8
-41 -10 0 -28 13 -38 30 l-19 30 -17 -30 c-10 -17 -25 -30 -33 -30 -19 0 -18
4 8 49 l22 38 -22 35 c-26 42 -27 48 -7 48 8 0 24 -14 34 -31z"/>
</g>
</svg>
