<?xml version="1.0" standalone="no"?>
<!DOCTYPE svg PUBLIC "-//W3C//DTD SVG 20010904//EN"
 "http://www.w3.org/TR/2001/REC-SVG-20010904/DTD/svg10.dtd">
<svg version="1.0" xmlns="http://www.w3.org/2000/svg"
 width="72.000000pt" height="72.000000pt" viewBox="0 0 72.000000 72.000000"
 preserveAspectRatio="xMidYMid meet">

<g transform="translate(0.000000,72.000000) scale(0.100000,-0.100000)"
fill="#000000" stroke="none">
<path d="M139 615 c-42 -23 -49 -56 -52 -262 -2 -180 -1 -193 19 -220 36 -49
55 -53 252 -53 285 0 286 1 280 289 -5 268 2 261 -281 261 -146 -1 -198 -4
-218 -15z m298 -36 c35 -13 90 -64 110 -103 23 -44 21 -132 -4 -188 -36 -80
-134 -123 -236 -104 -49 9 -122 76 -143 132 -15 40 -16 54 -6 101 16 78 44
117 104 147 56 28 125 34 175 15z m3 -454 c0 -12 -16 -15 -80 -15 -64 0 -80 3
-80 15 0 12 16 15 80 15 64 0 80 -3 80 -15z"/>
<path d="M327 454 c-3 -4 0 -16 8 -28 8 -11 15 -28 15 -38 0 -10 3 -18 8 -18
4 0 7 20 8 45 1 36 -2 45 -16 45 -9 0 -20 -3 -23 -6z"/>
<path d="M402 381 c-11 -7 -11 -9 1 -14 9 -3 18 1 21 9 6 16 -2 18 -22 5z"/>
</g>
</svg>
