<?xml version="1.0" standalone="no"?>
<!DOCTYPE svg PUBLIC "-//W3C//DTD SVG 20010904//EN"
 "http://www.w3.org/TR/2001/REC-SVG-20010904/DTD/svg10.dtd">
<svg version="1.0" xmlns="http://www.w3.org/2000/svg"
 width="72.000000pt" height="72.000000pt" viewBox="0 0 72.000000 72.000000"
 preserveAspectRatio="xMidYMid meet">

<g transform="translate(0.000000,72.000000) scale(0.100000,-0.100000)"
fill="#000000" stroke="none">
<path d="M100 360 l0 -260 260 0 260 0 0 260 0 260 -260 0 -260 0 0 -260z
m223 134 c23 -7 47 -55 47 -94 0 -45 -47 -90 -94 -90 -36 0 -36 0 -36 -45 0
-41 -2 -45 -25 -45 l-25 0 0 139 c0 137 0 140 23 144 22 5 78 0 110 -9z m178
-64 c25 -14 27 -55 2 -45 -32 13 -57 10 -61 -7 -2 -9 5 -19 17 -23 97 -31 92
-138 -8 -138 -46 0 -61 8 -61 33 0 16 7 18 41 17 53 -2 62 17 17 36 -45 19
-60 40 -56 79 4 48 61 73 109 48z"/>
<path d="M246 462 c-3 -3 -6 -29 -6 -59 0 -49 2 -53 23 -53 46 0 73 56 45 92
-14 17 -53 29 -62 20z"/>
</g>
</svg>
