<?xml version="1.0" standalone="no"?>
<!DOCTYPE svg PUBLIC "-//W3C//DTD SVG 20010904//EN"
 "http://www.w3.org/TR/2001/REC-SVG-20010904/DTD/svg10.dtd">
<svg version="1.0" xmlns="http://www.w3.org/2000/svg"
 width="72.000000pt" height="72.000000pt" viewBox="0 0 72.000000 72.000000"
 preserveAspectRatio="xMidYMid meet">

<g transform="translate(0.000000,72.000000) scale(0.100000,-0.100000)"
fill="#000000" stroke="none">
<path d="M163 619 c-62 -18 -68 -40 -68 -259 0 -170 2 -199 17 -223 27 -40 78
-49 273 -45 198 4 217 10 235 80 7 25 10 107 8 213 -3 195 -10 216 -75 234
-46 13 -346 13 -390 0z m347 -99 l40 -20 0 -140 0 -140 -40 -20 c-21 -11 -42
-20 -45 -20 -3 0 -5 81 -5 180 0 99 2 180 5 180 3 0 24 -9 45 -20z"/>
</g>
</svg>
